<?xml version="1.0" standalone="no"?>
<!DOCTYPE svg PUBLIC "-//W3C//DTD SVG 20010904//EN"
 "http://www.w3.org/TR/2001/REC-SVG-20010904/DTD/svg10.dtd">
<svg version="1.0" xmlns="http://www.w3.org/2000/svg"
 width="100%" height="100%" viewBox="0 0 1280.000000 960.000000"
 preserveAspectRatio="xMidYMid meet">
<g transform="translate(0.000000,960.000000) scale(0.100000,-0.100000)"
fill="#ccb28d" stroke="none">
<path d="M12093 7121 c-54 -14 -63 -27 -63 -92 0 -101 0 -101 -157 -143 -1549
-421 -3091 -678 -4608 -770 -657 -40 -1560 -51 -2135 -27 -1496 64 -2775 236
-4284 577 -191 44 -186 40 -186 145 0 50 -4 64 -25 84 -21 22 -33 25 -93 25
-78 0 -129 -14 -140 -39 -11 -25 -10 -66 101 -2344 72 -1463 108 -2142 116
-2150 6 -6 42 -13 80 -15 70 -4 131 9 150 32 7 8 -9 442 -55 1432 -35 780 -79
1737 -97 2127 -17 389 -31 711 -29 716 1 4 58 -5 125 -20 1271 -298 2649 -498
3922 -569 569 -32 1497 -41 2030 -20 1718 67 3463 338 5115 793 l155 42 1 -40
c1 -22 -43 -1032 -97 -2245 -65 -1481 -94 -2209 -87 -2217 27 -33 200 -45 229
-16 11 11 86 1524 226 4524 7 155 3 181 -30 196 -34 16 -126 23 -164 14z"/>
</g>
</svg>
